<svg width="39" height="40" viewBox="0 0 39 40" fill="none" xmlns="http://www.w3.org/2000/svg">
<path fill-rule="evenodd" clip-rule="evenodd" d="M13.0686 10.3218H8.46826V12.2574H11.5575L14.2167 24.5275H14.2282V24.8391H26.7082V24.5991L28.8135 15.249L29.1379 14.1931H13.897L13.3498 11.6661L13.0686 10.3218ZM26.6957 16.1287H14.3166L15.7844 22.9035H25.1703L26.6957 16.1287V16.1287Z" fill="#35475C"/>
<path d="M17.108 29.6784C17.6172 29.6784 18.1056 29.4745 18.4657 29.1115C18.8257 28.7485 19.028 28.2561 19.028 27.7428C19.028 27.2294 18.8257 26.7371 18.4657 26.3741C18.1056 26.0111 17.6172 25.8071 17.108 25.8071C16.5988 25.8071 16.1104 26.0111 15.7503 26.3741C15.3903 26.7371 15.188 27.2294 15.188 27.7428C15.188 28.2561 15.3903 28.7485 15.7503 29.1115C16.1104 29.4745 16.5988 29.6784 17.108 29.6784Z" fill="#35475C"/>
<path d="M25.7481 27.7428C25.7481 28.2561 25.5458 28.7485 25.1858 29.1115C24.8257 29.4745 24.3374 29.6784 23.8282 29.6784C23.319 29.6784 22.8306 29.4745 22.4705 29.1115C22.1105 28.7485 21.9082 28.2561 21.9082 27.7428C21.9082 27.2294 22.1105 26.7371 22.4705 26.3741C22.8306 26.0111 23.319 25.8071 23.8282 25.8071C24.3374 25.8071 24.8257 26.0111 25.1858 26.3741C25.5458 26.7371 25.7481 27.2294 25.7481 27.7428Z" fill="#35475C"/>
</svg>
