<svg width="40" height="40" viewBox="0 0 40 40" fill="none" xmlns="http://www.w3.org/2000/svg">
<path d="M20.1672 11.9346C16.6723 11.9346 13.6882 14.1928 12.5859 17.3113H27.8022C26.6731 14.1928 23.689 11.9346 20.1672 11.9346Z" fill="#F2B200"/>
<path d="M20.1672 28.0648C23.689 28.0648 26.6731 25.8334 27.7753 22.688H12.5859C13.6882 25.8334 16.6723 28.0648 20.1672 28.0648Z" fill="#83BF4F"/>
<path d="M12.5859 17.311C12.2902 18.1444 12.1289 19.0585 12.1289 19.9994C12.1289 20.9404 12.2902 21.8544 12.5859 22.6878H27.8022C28.0979 21.8544 28.2592 20.9404 28.2592 19.9994C28.2592 19.0585 28.0979 18.1444 27.8022 17.311H12.5859Z" fill="white"/>
<path d="M20.1673 22.1501C21.3551 22.1501 22.318 21.1871 22.318 19.9993C22.318 18.8115 21.3551 17.8486 20.1673 17.8486C18.9795 17.8486 18.0166 18.8115 18.0166 19.9993C18.0166 21.1871 18.9795 22.1501 20.1673 22.1501Z" fill="#428BC1"/>
<path d="M20.167 21.8819C21.2064 21.8819 22.0489 21.0394 22.0489 20C22.0489 18.9607 21.2064 18.1182 20.167 18.1182C19.1277 18.1182 18.2852 18.9607 18.2852 20C18.2852 21.0394 19.1277 21.8819 20.167 21.8819Z" fill="white"/>
<path d="M19.4684 18.3865C19.5426 18.3865 19.6028 18.3263 19.6028 18.2521C19.6028 18.1779 19.5426 18.1177 19.4684 18.1177C19.3942 18.1177 19.334 18.1779 19.334 18.2521C19.334 18.3263 19.3942 18.3865 19.4684 18.3865Z" fill="#428BC1"/>
<path d="M19.0377 18.6277C19.112 18.6277 19.1722 18.5675 19.1722 18.4933C19.1722 18.4191 19.112 18.3589 19.0377 18.3589C18.9635 18.3589 18.9033 18.4191 18.9033 18.4933C18.9033 18.5675 18.9635 18.6277 19.0377 18.6277Z" fill="#428BC1"/>
<path d="M18.6881 18.9773C18.7624 18.9773 18.8225 18.9172 18.8225 18.8429C18.8225 18.7687 18.7624 18.7085 18.6881 18.7085C18.6139 18.7085 18.5537 18.7687 18.5537 18.8429C18.5537 18.9172 18.6139 18.9773 18.6881 18.9773Z" fill="#428BC1"/>
<path d="M18.4464 19.4075C18.5207 19.4075 18.5809 19.3473 18.5809 19.2731C18.5809 19.1989 18.5207 19.1387 18.4464 19.1387C18.3722 19.1387 18.312 19.1989 18.312 19.2731C18.312 19.3473 18.3722 19.4075 18.4464 19.4075Z" fill="#428BC1"/>
<path d="M18.3122 19.8914C18.3864 19.8914 18.4466 19.8312 18.4466 19.757C18.4466 19.6827 18.3864 19.6226 18.3122 19.6226C18.2379 19.6226 18.1777 19.6827 18.1777 19.757C18.1777 19.8312 18.2379 19.8914 18.3122 19.8914Z" fill="#428BC1"/>
<path d="M18.3122 20.3753C18.3864 20.3753 18.4466 20.3151 18.4466 20.2409C18.4466 20.1666 18.3864 20.1064 18.3122 20.1064C18.2379 20.1064 18.1777 20.1666 18.1777 20.2409C18.1777 20.3151 18.2379 20.3753 18.3122 20.3753Z" fill="#428BC1"/>
<path d="M18.4464 20.8597C18.5207 20.8597 18.5809 20.7995 18.5809 20.7252C18.5809 20.651 18.5207 20.5908 18.4464 20.5908C18.3722 20.5908 18.312 20.651 18.312 20.7252C18.312 20.7995 18.3722 20.8597 18.4464 20.8597Z" fill="#428BC1"/>
<path d="M18.6881 21.2893C18.7624 21.2893 18.8225 21.2292 18.8225 21.1549C18.8225 21.0807 18.7624 21.0205 18.6881 21.0205C18.6139 21.0205 18.5537 21.0807 18.5537 21.1549C18.5537 21.2292 18.6139 21.2893 18.6881 21.2893Z" fill="#428BC1"/>
<path d="M19.0377 21.639C19.112 21.639 19.1722 21.5788 19.1722 21.5045C19.1722 21.4303 19.112 21.3701 19.0377 21.3701C18.9635 21.3701 18.9033 21.4303 18.9033 21.5045C18.9033 21.5788 18.9635 21.639 19.0377 21.639Z" fill="#428BC1"/>
<path d="M19.4684 21.8811C19.5426 21.8811 19.6028 21.821 19.6028 21.7467C19.6028 21.6725 19.5426 21.6123 19.4684 21.6123C19.3942 21.6123 19.334 21.6725 19.334 21.7467C19.334 21.821 19.3942 21.8811 19.4684 21.8811Z" fill="#428BC1"/>
<path d="M19.9249 21.9881C19.9992 21.9881 20.0594 21.9279 20.0594 21.8537C20.0594 21.7794 19.9992 21.7192 19.9249 21.7192C19.8507 21.7192 19.7905 21.7794 19.7905 21.8537C19.7905 21.9279 19.8507 21.9881 19.9249 21.9881Z" fill="#428BC1"/>
<path d="M20.3013 21.8805C20.3013 21.7999 20.355 21.7461 20.4088 21.7192C20.4895 21.7192 20.5432 21.773 20.5701 21.8268C20.5701 21.9074 20.5163 21.9612 20.4626 21.9881C20.355 22.015 20.3013 21.9612 20.3013 21.8805Z" fill="#428BC1"/>
<path d="M20.8927 21.8811C20.967 21.8811 21.0271 21.821 21.0271 21.7467C21.0271 21.6725 20.967 21.6123 20.8927 21.6123C20.8185 21.6123 20.7583 21.6725 20.7583 21.7467C20.7583 21.821 20.8185 21.8811 20.8927 21.8811Z" fill="#428BC1"/>
<path d="M21.3229 21.639C21.3971 21.639 21.4573 21.5788 21.4573 21.5045C21.4573 21.4303 21.3971 21.3701 21.3229 21.3701C21.2487 21.3701 21.1885 21.4303 21.1885 21.5045C21.1885 21.5788 21.2487 21.639 21.3229 21.639Z" fill="#428BC1"/>
<path d="M21.6725 21.2893C21.7467 21.2893 21.8069 21.2292 21.8069 21.1549C21.8069 21.0807 21.7467 21.0205 21.6725 21.0205C21.5983 21.0205 21.5381 21.0807 21.5381 21.1549C21.5381 21.2292 21.5983 21.2893 21.6725 21.2893Z" fill="#428BC1"/>
<path d="M21.9147 20.8597C21.9889 20.8597 22.0491 20.7995 22.0491 20.7252C22.0491 20.651 21.9889 20.5908 21.9147 20.5908C21.8405 20.5908 21.7803 20.651 21.7803 20.7252C21.7803 20.7995 21.8405 20.8597 21.9147 20.8597Z" fill="#428BC1"/>
<path d="M22.049 20.3753C22.1232 20.3753 22.1834 20.3151 22.1834 20.2409C22.1834 20.1666 22.1232 20.1064 22.049 20.1064C21.9747 20.1064 21.9146 20.1666 21.9146 20.2409C21.9146 20.3151 21.9747 20.3753 22.049 20.3753Z" fill="#428BC1"/>
<path d="M22.049 19.8914C21.9683 19.8914 21.9146 19.8376 21.8877 19.7839C21.8877 19.7032 21.9415 19.6494 21.9952 19.6226C22.0759 19.6226 22.1297 19.6763 22.1565 19.7301C22.1834 19.8107 22.1296 19.8645 22.049 19.8914Z" fill="#428BC1"/>
<path d="M21.9147 19.4075C21.9889 19.4075 22.0491 19.3473 22.0491 19.2731C22.0491 19.1989 21.9889 19.1387 21.9147 19.1387C21.8405 19.1387 21.7803 19.1989 21.7803 19.2731C21.7803 19.3473 21.8405 19.4075 21.9147 19.4075Z" fill="#428BC1"/>
<path d="M21.6725 18.9773C21.7467 18.9773 21.8069 18.9172 21.8069 18.8429C21.8069 18.7687 21.7467 18.7085 21.6725 18.7085C21.5983 18.7085 21.5381 18.7687 21.5381 18.8429C21.5381 18.9172 21.5983 18.9773 21.6725 18.9773Z" fill="#428BC1"/>
<path d="M21.3229 18.6277C21.3971 18.6277 21.4573 18.5675 21.4573 18.4933C21.4573 18.4191 21.3971 18.3589 21.3229 18.3589C21.2487 18.3589 21.1885 18.4191 21.1885 18.4933C21.1885 18.5675 21.2487 18.6277 21.3229 18.6277Z" fill="#428BC1"/>
<path d="M21.0275 18.3052C21.0006 18.3859 20.9199 18.4127 20.8393 18.3859C20.7586 18.359 20.7317 18.2783 20.7586 18.1977C20.7855 18.117 20.8662 18.0901 20.9468 18.117C21.0275 18.1708 21.0543 18.2514 21.0275 18.3052Z" fill="#428BC1"/>
<path d="M20.5434 18.1444C20.5434 18.225 20.4628 18.2788 20.3821 18.2519C20.3015 18.2519 20.2477 18.1713 20.2746 18.0906C20.2746 18.01 20.3552 17.9562 20.4359 17.9831C20.5165 18.01 20.5703 18.0906 20.5434 18.1444Z" fill="#428BC1"/>
<path d="M20.0594 18.117C20.0594 18.1976 20.0056 18.2514 19.9518 18.2783C19.8712 18.2783 19.8174 18.2245 19.7905 18.1707C19.7905 18.0901 19.8443 18.0363 19.8981 18.0094C19.9787 17.9826 20.0594 18.0363 20.0594 18.117Z" fill="#428BC1"/>
<path d="M20.1674 20.4027C20.3901 20.4027 20.5707 20.2222 20.5707 19.9994C20.5707 19.7767 20.3901 19.5962 20.1674 19.5962C19.9447 19.5962 19.7642 19.7767 19.7642 19.9994C19.7642 20.2222 19.9447 20.4027 20.1674 20.4027Z" fill="#428BC1"/>
<path d="M20.167 18.1177L20.1133 19.2737L20.167 19.9995L20.2477 19.2737L20.167 18.1177Z" fill="#428BC1"/>
<path d="M19.6831 18.1709L19.9251 19.3269L20.167 19.999L20.0595 19.2731L19.6831 18.1709Z" fill="#428BC1"/>
<path d="M19.2261 18.3589L19.7638 19.4074L20.167 19.9988L19.8713 19.3267L19.2261 18.3589Z" fill="#428BC1"/>
<path d="M18.8496 18.6548L19.6292 19.542L20.1669 19.999L19.7099 19.4344L18.8496 18.6548Z" fill="#428BC1"/>
<path d="M18.5537 19.0581L19.5215 19.7033L20.1667 19.999L19.5753 19.5689L18.5537 19.0581Z" fill="#428BC1"/>
<path d="M18.3657 19.5156L19.468 19.8651L20.1669 19.9995L19.4948 19.7576L18.3657 19.5156Z" fill="#428BC1"/>
<path d="M18.2852 19.9991L19.468 20.0528L20.167 19.9991L19.468 19.9453L18.2852 19.9991Z" fill="#428BC1"/>
<path d="M18.3657 20.4829L19.4948 20.241L20.1669 19.999L19.468 20.1334L18.3657 20.4829Z" fill="#428BC1"/>
<path d="M18.5537 20.94L19.5753 20.4292L20.1667 19.999L19.5215 20.2947L18.5537 20.94Z" fill="#428BC1"/>
<path d="M18.8496 21.3163L19.7099 20.5636L20.1669 19.999L19.6292 20.456L18.8496 21.3163Z" fill="#428BC1"/>
<path d="M19.2261 21.6389L19.8713 20.6442L20.167 19.999L19.7638 20.5905L19.2261 21.6389Z" fill="#428BC1"/>
<path d="M19.6831 21.8271L20.0595 20.7249L20.167 19.999L19.9251 20.6711L19.6831 21.8271Z" fill="#428BC1"/>
<path d="M20.167 21.8809L20.2477 20.7249L20.167 19.999L20.1133 20.7249L20.167 21.8809Z" fill="#428BC1"/>
<path d="M20.6509 21.8271L20.4358 20.6711L20.167 19.999L20.3014 20.7249L20.6509 21.8271Z" fill="#428BC1"/>
<path d="M21.1079 21.6389L20.5971 20.5905L20.167 19.999L20.4896 20.6711L21.1079 21.6389Z" fill="#428BC1"/>
<path d="M21.5112 21.3163L20.7316 20.456L20.167 19.999L20.6509 20.5636L21.5112 21.3163Z" fill="#428BC1"/>
<path d="M21.8069 20.94L20.8391 20.2947L20.167 19.999L20.7584 20.4292L21.8069 20.94Z" fill="#428BC1"/>
<path d="M21.9951 20.4829L20.8929 20.1334L20.167 19.999L20.866 20.241L21.9951 20.4829Z" fill="#428BC1"/>
<path d="M22.0489 19.9986L20.8929 19.918L20.167 19.9986L20.8929 20.0524L22.0489 19.9986Z" fill="#428BC1"/>
<path d="M21.9951 19.5156L20.866 19.7576L20.167 19.9995L20.8929 19.8651L21.9951 19.5156Z" fill="#428BC1"/>
<path d="M21.8069 19.0581L20.7584 19.5689L20.167 19.999L20.8391 19.7033L21.8069 19.0581Z" fill="#428BC1"/>
<path d="M21.5112 18.6816L20.6509 19.4344L20.167 19.999L20.7316 19.5419L21.5112 18.6816Z" fill="#428BC1"/>
<path d="M21.1079 18.3589L20.4896 19.3536L20.167 19.9988L20.5971 19.4074L21.1079 18.3589Z" fill="#428BC1"/>
<path d="M20.6778 18.1709L20.3014 19.2731L20.167 19.999L20.4358 19.3269L20.6778 18.1709Z" fill="#428BC1"/>
<g style="mix-blend-mode:saturation" opacity="0.6">
<circle cx="20.1943" cy="19.9999" r="9.67815" fill="#35475C"/>
</g>
<circle cx="20.1943" cy="19.9999" r="8.7837" stroke="#35475C" stroke-width="1.78889"/>
</svg>
