<svg width="40" height="40" viewBox="0 0 40 40" fill="none" xmlns="http://www.w3.org/2000/svg">
<path d="M13.0166 29.6783C13.0166 27.7226 13.8097 25.847 15.2214 24.4642C16.6331 23.0813 18.5477 22.3044 20.5441 22.3044C22.5406 22.3044 24.4552 23.0813 25.8669 24.4642C27.2786 25.847 28.0717 27.7226 28.0717 29.6783H26.1898C26.1898 28.2115 25.595 26.8048 24.5362 25.7677C23.4775 24.7305 22.0415 24.1479 20.5441 24.1479C19.0468 24.1479 17.6108 24.7305 16.5521 25.7677C15.4933 26.8048 14.8985 28.2115 14.8985 29.6783H13.0166ZM20.5441 21.3826C17.4249 21.3826 14.8985 18.9078 14.8985 15.8522C14.8985 12.7966 17.4249 10.3218 20.5441 10.3218C23.6634 10.3218 26.1898 12.7966 26.1898 15.8522C26.1898 18.9078 23.6634 21.3826 20.5441 21.3826ZM20.5441 19.5392C22.6236 19.5392 24.3079 17.8893 24.3079 15.8522C24.3079 13.8152 22.6236 12.1653 20.5441 12.1653C18.4647 12.1653 16.7804 13.8152 16.7804 15.8522C16.7804 17.8893 18.4647 19.5392 20.5441 19.5392Z" fill="#35475C"/>
</svg>
